<?xml version="1.0" encoding="UTF-8"?>
<svg width="83px" height="64px" viewBox="0 0 83 64" version="1.1" xmlns="http://www.w3.org/2000/svg" xmlns:xlink="http://www.w3.org/1999/xlink">
    <!-- Generator: Sketch 40.2 (33826) - http://www.bohemiancoding.com/sketch -->
    <title>Group 8 Copy</title>
    <desc>Created with Sketch.</desc>
    <defs>
        <filter x="-50%" y="-50%" width="200%" height="200%" filterUnits="objectBoundingBox" id="filter-1">
            <feOffset dx="0" dy="0" in="SourceAlpha" result="shadowOffsetOuter1"/>
            <feGaussianBlur stdDeviation="3" in="shadowOffsetOuter1" result="shadowBlurOuter1"/>
            <feColorMatrix values="0 0 0 0 0.132642272   0 0 0 0 0.142192298   0 0 0 0 0.23530506  0 0 0 0.49181952 0" type="matrix" in="shadowBlurOuter1" result="shadowMatrixOuter1"/>
            <feMerge>
                <feMergeNode in="shadowMatrixOuter1"/>
                <feMergeNode in="SourceGraphic"/>
            </feMerge>
        </filter>
        <rect id="path-2" x="2.01212121" y="0" width="1.00606061" height="4.5" rx="0.503030303"/>
        <mask id="mask-3" maskContentUnits="userSpaceOnUse" maskUnits="objectBoundingBox" x="0" y="0" width="1.00606061" height="4.5" fill="white">
            <use xlink:href="#path-2"/>
        </mask>
        <rect id="path-4" x="2.01212121" y="0" width="1.00606061" height="4.5" rx="0.503030303"/>
        <mask id="mask-5" maskContentUnits="userSpaceOnUse" maskUnits="objectBoundingBox" x="0" y="0" width="1.00606061" height="4.5" fill="white">
            <use xlink:href="#path-4"/>
        </mask>
    </defs>
    <g id="Branding" stroke="none" stroke-width="1" fill="none" fill-rule="evenodd">
        <g transform="translate(-539.000000, -750.000000)" id="Group-8-Copy">
            <g transform="translate(539.000000, 750.000000)">
                <g id="Group-2">
                    <path d="M38.1448961,0.992388364 C39.5811449,0.16816503 41.9082821,0.167314453 43.346013,0.992388364 L66.4613024,14.2576116 C67.8975512,15.081835 69.0618609,17.0846289 69.0618609,18.7492676 L69.0618609,45.2507324 C69.0618609,46.9071822 67.8990334,48.9173145 66.4613024,49.7423884 L43.346013,63.0076116 C41.9097642,63.831835 39.582627,63.8326855 38.1448961,63.0076116 L15.0296066,49.7423884 C13.5933579,48.918165 12.4290482,46.9153711 12.4290482,45.2507324 L12.4290482,18.7492676 C12.4290482,17.0928178 13.5918757,15.0826855 15.0296066,14.2576116 L38.1448961,0.992388364 Z" id="Polygon" fill="#FF6B4A"/>
                    <path d="M53.3301153,38.5027471 C53.3301153,41.6254682 52.1520155,44.0701935 49.7957805,45.8369962 C47.4395455,47.6037989 43.9672512,48.487187 39.3787936,48.487187 C37.6426204,48.487187 36.0304838,48.3639236 34.5423354,48.1173929 C33.054187,47.8708623 31.7830793,47.4908 30.7289741,46.9771946 C29.674869,46.4635891 28.8481323,45.816456 28.2487392,45.0357757 C27.649346,44.2550954 27.349654,43.3306195 27.349654,42.2623202 C27.349654,41.2761977 27.5563382,40.4441694 27.9697127,39.7662102 C28.3830873,39.088251 28.8791293,38.5232935 29.4578537,38.0713207 C30.6566399,38.7287357 32.0310897,39.3142371 33.5812444,39.8278426 C35.131399,40.341448 36.9192171,40.5982469 38.9447525,40.5982469 C40.2262136,40.5982469 41.2079635,40.4133517 41.8900315,40.0435558 C42.5720995,39.6737598 42.9131284,39.180706 42.9131284,38.5643795 C42.9131284,37.9891414 42.6651074,37.5371754 42.1690579,37.2084679 C41.6730085,36.8797604 40.8462717,36.6126896 39.688823,36.4072474 L37.8286467,36.0374533 C34.2322881,35.3389499 31.5557279,34.2398508 29.798886,32.7401229 C28.0420441,31.240395 27.1636364,29.0935564 27.1636364,26.2995428 C27.1636364,24.7792707 27.4943311,23.4028288 28.1557304,22.1701757 C28.8171297,20.9375227 29.7472085,19.9103272 30.9459947,19.0885585 C32.1447809,18.2667898 33.581236,17.6299286 35.255403,17.1779558 C36.9295699,16.725983 38.7793934,16.5 40.8049287,16.5 C42.3344146,16.5 43.7708696,16.6129915 45.114337,16.8389779 C46.4578043,17.0649643 47.6255699,17.4039388 48.6176689,17.8559116 C49.6097678,18.3078844 50.3951677,18.8933858 50.9738921,19.6124334 C51.5526165,20.331481 51.8419743,21.1840533 51.8419743,22.1701757 C51.8419743,23.1152097 51.6662928,23.9266942 51.3149244,24.6046534 C50.963556,25.2826125 50.519185,25.8475701 49.9817981,26.2995428 C49.6510985,26.0941007 49.1550564,25.8783896 48.4936571,25.6524032 C47.8322578,25.4264168 47.1088632,25.2209777 46.3234515,25.0360798 C45.5380399,24.8511818 44.7423058,24.6971025 43.9362254,24.5738372 C43.130145,24.4505719 42.3964161,24.3889402 41.7350168,24.3889402 C40.3708808,24.3889402 39.3167914,24.5430195 38.5727172,24.8511827 C37.828643,25.159346 37.4566115,25.6421279 37.4566115,26.2995428 C37.4566115,26.7515156 37.6632957,27.121306 38.0766702,27.4089251 C38.4900448,27.6965441 39.2754447,27.9636149 40.4328935,28.2101455 L42.3550756,28.6415719 C46.3234714,29.5455175 49.1447104,30.7884241 50.8188774,32.3703288 C52.4930444,33.9522336 53.3301153,35.9963526 53.3301153,38.5027471 L53.3301153,38.5027471 Z" id="s" fill="#FFFFFF"/>
                    <g id="Group" filter="url(#filter-1)" transform="translate(27.666667, 25.000000)">
                        <g id="Page-1" transform="translate(0.495522, 0.158333)"/>
                        <g id="Group-7">
                            <g id="Group-6">
                                <g id="Group-3"/>
                                <g id="Oval-460" transform="translate(5.533333, 6.500000)"/>
                            </g>
                        </g>
                    </g>
                    <g id="Group-10" transform="translate(0.000000, 5.500000)">
                        <ellipse id="Oval-465" stroke="#FBBF75" stroke-width="1.5" cx="61.8727273" cy="6.5" rx="3.52121212" ry="3.5"/>
                        <ellipse id="Oval-465" stroke="#4EC66B" stroke-width="1.5" cx="27.4151515" cy="51.75" rx="2.76666667" ry="2.75"/>
                        <ellipse id="Oval-465" fill="#5F86DA" cx="18.6121212" cy="1.5" rx="1.50909091" ry="1.5"/>
                        <ellipse id="Oval-465" fill="#FBBF75" cx="1.00606061" cy="13" rx="1.00606061" ry="1"/>
                        <g id="Group-9" transform="translate(1.006061, 28.500000)" fill="#5F86D9">
                            <rect id="Rectangle-2900" x="3.01818182" y="0" width="1.50909091" height="7" rx="0.754545455"/>
                            <rect id="Rectangle-2900" transform="translate(3.772727, 3.500000) rotate(-90.000000) translate(-3.772727, -3.500000) " x="3.01818182" y="0" width="1.50909091" height="7" rx="0.754545455"/>
                        </g>
                    </g>
                    <g id="Group-11" transform="translate(56.339394, 19.000000)">
                        <ellipse id="Oval-465" fill="#5F86D9" cx="1.50909091" cy="41" rx="1.50909091" ry="1.5"/>
                        <ellipse id="Oval-465" fill="#FBBF75" cx="25.1515152" cy="21" rx="1.50909091" ry="1.5"/>
                        <g id="Group-9" transform="translate(8.551515, 27.500000)" fill="#FBBF75">
                            <rect id="Rectangle-2900" x="3.01818182" y="0" width="1.50909091" height="7" rx="0.754545455"/>
                            <rect id="Rectangle-2900" transform="translate(3.772727, 3.500000) rotate(-90.000000) translate(-3.772727, -3.500000) " x="3.01818182" y="0" width="1.50909091" height="7" rx="0.754545455"/>
                        </g>
                        <g id="Group-9" transform="translate(20.121212, 0.000000)" stroke="#4EC66B" fill="#53CAE3">
                            <use id="Rectangle-2900" mask="url(#mask-3)" xlink:href="#path-2"/>
                            <use id="Rectangle-2900" mask="url(#mask-5)" transform="translate(2.515152, 2.250000) rotate(-90.000000) translate(-2.515152, -2.250000) " xlink:href="#path-4"/>
                        </g>
                    </g>
                </g>
            </g>
        </g>
    </g>
</svg>